<mxfile host="app.diagrams.net" agent="Mozilla/5.0 (X11; Linux x86_64) AppleWebKit/537.36 (KHTML, like Gecko) Chrome/130.0.0.0 Safari/537.36" version="24.8.3" pages="2">
  <diagram name="Recipe states" id="QuT8dYIqFXSLnK7DtXXm">
    <mxGraphModel grid="1" page="1" gridSize="10" guides="1" tooltips="1" connect="1" arrows="1" fold="1" pageScale="1" pageWidth="1169" pageHeight="827" math="0" shadow="0">
      <root>
        <mxCell id="0" />
        <mxCell id="1" parent="0" />
        <mxCell id="Y0Jny9pPkKpeJkx3MOhW-1" value="" style="rounded=1;whiteSpace=wrap;html=1;" vertex="1" parent="1">
          <mxGeometry x="555" y="183" width="360" height="205" as="geometry" />
        </mxCell>
        <mxCell id="Y0Jny9pPkKpeJkx3MOhW-2" style="edgeStyle=orthogonalEdgeStyle;rounded=0;orthogonalLoop=1;jettySize=auto;html=1;exitX=0;exitY=0.5;exitDx=0;exitDy=0;entryX=0.5;entryY=1;entryDx=0;entryDy=0;endSize=8;endArrow=open;endFill=0;" edge="1" parent="1" source="Y0Jny9pPkKpeJkx3MOhW-3" target="Y0Jny9pPkKpeJkx3MOhW-28">
          <mxGeometry relative="1" as="geometry" />
        </mxCell>
        <mxCell id="Y0Jny9pPkKpeJkx3MOhW-3" value="" style="rounded=1;whiteSpace=wrap;html=1;" vertex="1" parent="1">
          <mxGeometry x="555" y="543.6700000000001" width="360" height="100" as="geometry" />
        </mxCell>
        <mxCell id="Y0Jny9pPkKpeJkx3MOhW-4" value="" style="ellipse;html=1;shape=startState;rounded=1;shadow=0;comic=0;labelBackgroundColor=none;fontFamily=Verdana;fontSize=12;align=center;direction=south;fillStyle=solid;fillColor=#ffffff;" vertex="1" parent="1">
          <mxGeometry x="255" y="323" width="30" height="30" as="geometry" />
        </mxCell>
        <mxCell id="Y0Jny9pPkKpeJkx3MOhW-5" value="IDLE" style="rounded=1;whiteSpace=wrap;html=1;arcSize=24;shadow=0;comic=0;labelBackgroundColor=none;fontFamily=Verdana;fontSize=12;align=center;" vertex="1" parent="1">
          <mxGeometry x="365" y="308" width="120" height="60" as="geometry" />
        </mxCell>
        <mxCell id="Y0Jny9pPkKpeJkx3MOhW-6" style="edgeStyle=orthogonalEdgeStyle;html=1;labelBackgroundColor=none;endArrow=open;endSize=8;fontFamily=Verdana;fontSize=12;align=left;exitX=0.5;exitY=0;exitDx=0;exitDy=0;" edge="1" parent="1" source="Y0Jny9pPkKpeJkx3MOhW-4" target="Y0Jny9pPkKpeJkx3MOhW-5">
          <mxGeometry relative="1" as="geometry">
            <mxPoint x="300" y="340" as="sourcePoint" />
          </mxGeometry>
        </mxCell>
        <mxCell id="Y0Jny9pPkKpeJkx3MOhW-7" style="edgeStyle=orthogonalEdgeStyle;rounded=0;orthogonalLoop=1;jettySize=auto;html=1;entryX=0.5;entryY=0;entryDx=0;entryDy=0;endArrow=open;endFill=0;endSize=8;" edge="1" parent="1" target="Y0Jny9pPkKpeJkx3MOhW-21">
          <mxGeometry relative="1" as="geometry">
            <mxPoint x="845" y="388" as="sourcePoint" />
            <Array as="points">
              <mxPoint x="845" y="421" />
              <mxPoint x="845" y="421" />
            </Array>
          </mxGeometry>
        </mxCell>
        <mxCell id="Y0Jny9pPkKpeJkx3MOhW-8" value="stop" style="edgeLabel;html=1;align=center;verticalAlign=middle;resizable=0;points=[];" connectable="0" vertex="1" parent="Y0Jny9pPkKpeJkx3MOhW-7">
          <mxGeometry x="-0.0179" relative="1" as="geometry">
            <mxPoint x="-20" y="-2" as="offset" />
          </mxGeometry>
        </mxCell>
        <mxCell id="Y0Jny9pPkKpeJkx3MOhW-9" style="edgeStyle=orthogonalEdgeStyle;rounded=0;orthogonalLoop=1;jettySize=auto;html=1;entryX=0.5;entryY=0;entryDx=0;entryDy=0;exitX=0.5;exitY=1;exitDx=0;exitDy=0;endArrow=open;endFill=0;endSize=8;" edge="1" parent="1" source="Y0Jny9pPkKpeJkx3MOhW-10" target="Y0Jny9pPkKpeJkx3MOhW-13">
          <mxGeometry relative="1" as="geometry" />
        </mxCell>
        <mxCell id="Y0Jny9pPkKpeJkx3MOhW-10" value="EXECUTING" style="rounded=1;whiteSpace=wrap;html=1;arcSize=24;shadow=0;comic=0;labelBackgroundColor=none;fontFamily=Verdana;fontSize=12;align=center;" vertex="1" parent="1">
          <mxGeometry x="575" y="308" width="120" height="60" as="geometry" />
        </mxCell>
        <mxCell id="Y0Jny9pPkKpeJkx3MOhW-11" style="edgeStyle=orthogonalEdgeStyle;html=1;labelBackgroundColor=none;endArrow=open;endSize=8;fontFamily=Verdana;fontSize=12;align=left;entryX=0;entryY=0.5;entryDx=0;entryDy=0;exitX=1;exitY=0.5;exitDx=0;exitDy=0;" edge="1" parent="1" source="Y0Jny9pPkKpeJkx3MOhW-5" target="Y0Jny9pPkKpeJkx3MOhW-10">
          <mxGeometry relative="1" as="geometry">
            <mxPoint x="505" y="328" as="sourcePoint" />
            <mxPoint x="565" y="337.65999999999997" as="targetPoint" />
          </mxGeometry>
        </mxCell>
        <mxCell id="Y0Jny9pPkKpeJkx3MOhW-12" value="start" style="edgeLabel;html=1;align=center;verticalAlign=middle;resizable=0;points=[];" connectable="0" vertex="1" parent="Y0Jny9pPkKpeJkx3MOhW-11">
          <mxGeometry x="-0.0199" relative="1" as="geometry">
            <mxPoint x="-4" y="-15" as="offset" />
          </mxGeometry>
        </mxCell>
        <mxCell id="Y0Jny9pPkKpeJkx3MOhW-13" value="COMPLETE" style="rounded=1;whiteSpace=wrap;html=1;arcSize=24;shadow=0;comic=0;labelBackgroundColor=none;fontFamily=Verdana;fontSize=12;align=center;" vertex="1" parent="1">
          <mxGeometry x="575" y="563.6700000000001" width="120" height="60" as="geometry" />
        </mxCell>
        <mxCell id="Y0Jny9pPkKpeJkx3MOhW-14" value="STOPPED" style="rounded=1;whiteSpace=wrap;html=1;arcSize=24;shadow=0;comic=0;labelBackgroundColor=none;fontFamily=Verdana;fontSize=12;align=center;" vertex="1" parent="1">
          <mxGeometry x="785" y="563.6700000000001" width="120" height="60" as="geometry" />
        </mxCell>
        <mxCell id="Y0Jny9pPkKpeJkx3MOhW-15" style="edgeStyle=orthogonalEdgeStyle;rounded=0;orthogonalLoop=1;jettySize=auto;html=1;entryX=0.5;entryY=1;entryDx=0;entryDy=0;endSize=8;endArrow=open;endFill=0;" edge="1" parent="1" source="Y0Jny9pPkKpeJkx3MOhW-16" target="Y0Jny9pPkKpeJkx3MOhW-24">
          <mxGeometry relative="1" as="geometry" />
        </mxCell>
        <mxCell id="Y0Jny9pPkKpeJkx3MOhW-16" value="HOLDING" style="rounded=1;whiteSpace=wrap;html=1;arcSize=24;shadow=0;comic=0;labelBackgroundColor=none;fontFamily=Verdana;fontSize=12;align=center;" vertex="1" parent="1">
          <mxGeometry x="785" y="308" width="120" height="60" as="geometry" />
        </mxCell>
        <mxCell id="Y0Jny9pPkKpeJkx3MOhW-17" style="edgeStyle=orthogonalEdgeStyle;html=1;labelBackgroundColor=none;endArrow=open;endSize=8;fontFamily=Verdana;fontSize=12;align=left;entryX=0;entryY=0.5;entryDx=0;entryDy=0;exitX=1;exitY=0.5;exitDx=0;exitDy=0;" edge="1" parent="1" source="Y0Jny9pPkKpeJkx3MOhW-10" target="Y0Jny9pPkKpeJkx3MOhW-16">
          <mxGeometry relative="1" as="geometry">
            <mxPoint x="695" y="337.8" as="sourcePoint" />
            <mxPoint x="775" y="333" as="targetPoint" />
          </mxGeometry>
        </mxCell>
        <mxCell id="Y0Jny9pPkKpeJkx3MOhW-18" value="hold" style="edgeLabel;html=1;align=center;verticalAlign=middle;resizable=0;points=[];" connectable="0" vertex="1" parent="Y0Jny9pPkKpeJkx3MOhW-17">
          <mxGeometry x="-0.0199" relative="1" as="geometry">
            <mxPoint y="15" as="offset" />
          </mxGeometry>
        </mxCell>
        <mxCell id="Y0Jny9pPkKpeJkx3MOhW-19" value="reset" style="edgeLabel;html=1;align=center;verticalAlign=middle;resizable=0;points=[];" connectable="0" vertex="1" parent="1">
          <mxGeometry x="405.0027705112948" y="563.6700000000002" as="geometry">
            <mxPoint x="3" y="-1" as="offset" />
          </mxGeometry>
        </mxCell>
        <mxCell id="Y0Jny9pPkKpeJkx3MOhW-20" style="edgeStyle=orthogonalEdgeStyle;rounded=0;orthogonalLoop=1;jettySize=auto;html=1;entryX=0.5;entryY=0;entryDx=0;entryDy=0;endSize=8;endArrow=open;endFill=0;" edge="1" parent="1" source="Y0Jny9pPkKpeJkx3MOhW-21" target="Y0Jny9pPkKpeJkx3MOhW-14">
          <mxGeometry relative="1" as="geometry" />
        </mxCell>
        <mxCell id="Y0Jny9pPkKpeJkx3MOhW-21" value="STOPPING" style="rounded=1;whiteSpace=wrap;html=1;arcSize=24;shadow=0;comic=0;labelBackgroundColor=none;fontFamily=Verdana;fontSize=12;align=center;" vertex="1" parent="1">
          <mxGeometry x="785" y="433" width="120" height="60" as="geometry" />
        </mxCell>
        <mxCell id="Y0Jny9pPkKpeJkx3MOhW-22" style="edgeStyle=orthogonalEdgeStyle;rounded=0;orthogonalLoop=1;jettySize=auto;html=1;entryX=0.5;entryY=0;entryDx=0;entryDy=0;endArrow=open;endFill=0;endSize=8;" edge="1" parent="1" source="Y0Jny9pPkKpeJkx3MOhW-23" target="Y0Jny9pPkKpeJkx3MOhW-10">
          <mxGeometry relative="1" as="geometry" />
        </mxCell>
        <mxCell id="Y0Jny9pPkKpeJkx3MOhW-23" value="RESUMMING" style="rounded=1;whiteSpace=wrap;html=1;arcSize=24;shadow=0;comic=0;labelBackgroundColor=none;fontFamily=Verdana;fontSize=12;align=center;" vertex="1" parent="1">
          <mxGeometry x="575" y="203" width="120" height="60" as="geometry" />
        </mxCell>
        <mxCell id="Y0Jny9pPkKpeJkx3MOhW-24" value="HELD" style="rounded=1;whiteSpace=wrap;html=1;arcSize=24;shadow=0;comic=0;labelBackgroundColor=none;fontFamily=Verdana;fontSize=12;align=center;" vertex="1" parent="1">
          <mxGeometry x="785" y="203" width="120" height="60" as="geometry" />
        </mxCell>
        <mxCell id="Y0Jny9pPkKpeJkx3MOhW-25" style="edgeStyle=orthogonalEdgeStyle;html=1;labelBackgroundColor=none;endArrow=open;endSize=8;fontFamily=Verdana;fontSize=12;align=left;exitX=0;exitY=0.5;exitDx=0;exitDy=0;entryX=1;entryY=0.5;entryDx=0;entryDy=0;" edge="1" parent="1" source="Y0Jny9pPkKpeJkx3MOhW-24" target="Y0Jny9pPkKpeJkx3MOhW-23">
          <mxGeometry relative="1" as="geometry">
            <mxPoint x="775" y="233" as="sourcePoint" />
            <mxPoint x="695" y="232.71" as="targetPoint" />
          </mxGeometry>
        </mxCell>
        <mxCell id="Y0Jny9pPkKpeJkx3MOhW-26" value="resume" style="edgeLabel;html=1;align=center;verticalAlign=middle;resizable=0;points=[];" connectable="0" vertex="1" parent="Y0Jny9pPkKpeJkx3MOhW-25">
          <mxGeometry x="-0.0199" relative="1" as="geometry">
            <mxPoint y="-10" as="offset" />
          </mxGeometry>
        </mxCell>
        <mxCell id="Y0Jny9pPkKpeJkx3MOhW-28" value="RESETTING" style="rounded=1;whiteSpace=wrap;html=1;arcSize=24;shadow=0;comic=0;labelBackgroundColor=none;fontFamily=Verdana;fontSize=12;align=center;" vertex="1" parent="1">
          <mxGeometry x="365" y="433" width="120" height="60" as="geometry" />
        </mxCell>
        <mxCell id="50pbw28xLZw0XLNKzUMK-1" style="edgeStyle=orthogonalEdgeStyle;rounded=0;orthogonalLoop=1;jettySize=auto;html=1;entryX=0.5;entryY=1;entryDx=0;entryDy=0;endSize=8;endArrow=open;endFill=0;exitX=0.5;exitY=0;exitDx=0;exitDy=0;" edge="1" parent="1" source="Y0Jny9pPkKpeJkx3MOhW-28" target="Y0Jny9pPkKpeJkx3MOhW-5">
          <mxGeometry relative="1" as="geometry">
            <mxPoint x="450" y="420" as="sourcePoint" />
            <mxPoint x="520" y="388" as="targetPoint" />
          </mxGeometry>
        </mxCell>
      </root>
    </mxGraphModel>
  </diagram>
  <diagram id="S0GN4MrPqTWjxlK2gOd1" name="Recipe steps">
    <mxGraphModel grid="1" page="1" gridSize="10" guides="1" tooltips="1" connect="1" arrows="1" fold="1" pageScale="1" pageWidth="1169" pageHeight="827" math="0" shadow="0">
      <root>
        <mxCell id="0" />
        <mxCell id="1" parent="0" />
        <mxCell id="VP5haOM-f1Nte6HLq3qM-1" style="edgeStyle=orthogonalEdgeStyle;rounded=0;orthogonalLoop=1;jettySize=auto;html=1;entryX=0;entryY=0.5;entryDx=0;entryDy=0;" edge="1" parent="1" source="VP5haOM-f1Nte6HLq3qM-3" target="VP5haOM-f1Nte6HLq3qM-8">
          <mxGeometry relative="1" as="geometry" />
        </mxCell>
        <mxCell id="VP5haOM-f1Nte6HLq3qM-2" value="injectCO2(3 bar)&amp;nbsp;&lt;div&gt;complete&lt;/div&gt;" style="edgeLabel;html=1;align=center;verticalAlign=middle;resizable=0;points=[];" connectable="0" vertex="1" parent="VP5haOM-f1Nte6HLq3qM-1">
          <mxGeometry x="-0.2746" y="1" relative="1" as="geometry">
            <mxPoint x="23" y="-19" as="offset" />
          </mxGeometry>
        </mxCell>
        <mxCell id="VP5haOM-f1Nte6HLq3qM-3" value="STEP 1" style="rounded=1;whiteSpace=wrap;html=1;arcSize=24;shadow=0;comic=0;labelBackgroundColor=none;fontFamily=Verdana;fontSize=12;align=center;" vertex="1" parent="1">
          <mxGeometry x="130" y="1061" width="120" height="60" as="geometry" />
        </mxCell>
        <mxCell id="VP5haOM-f1Nte6HLq3qM-4" style="edgeStyle=orthogonalEdgeStyle;rounded=0;orthogonalLoop=1;jettySize=auto;html=1;entryX=0;entryY=0.5;entryDx=0;entryDy=0;" edge="1" parent="1" source="VP5haOM-f1Nte6HLq3qM-8" target="VP5haOM-f1Nte6HLq3qM-10">
          <mxGeometry relative="1" as="geometry" />
        </mxCell>
        <mxCell id="VP5haOM-f1Nte6HLq3qM-5" value="dissolveCO2() complete&lt;div&gt;&amp;amp;&lt;/div&gt;&lt;div&gt;bpa1 &amp;lt; 0.9 bar&lt;/div&gt;" style="edgeLabel;html=1;align=center;verticalAlign=middle;resizable=0;points=[];" connectable="0" vertex="1" parent="VP5haOM-f1Nte6HLq3qM-4">
          <mxGeometry x="0.2778" y="-1" relative="1" as="geometry">
            <mxPoint x="-17" y="-31" as="offset" />
          </mxGeometry>
        </mxCell>
        <mxCell id="VP5haOM-f1Nte6HLq3qM-6" style="edgeStyle=orthogonalEdgeStyle;rounded=0;orthogonalLoop=1;jettySize=auto;html=1;exitX=0.5;exitY=0;exitDx=0;exitDy=0;entryX=0.5;entryY=0;entryDx=0;entryDy=0;" edge="1" parent="1" source="VP5haOM-f1Nte6HLq3qM-8" target="VP5haOM-f1Nte6HLq3qM-16">
          <mxGeometry relative="1" as="geometry">
            <mxPoint x="990" y="1171" as="targetPoint" />
            <Array as="points">
              <mxPoint x="440" y="991" />
              <mxPoint x="980" y="991" />
            </Array>
          </mxGeometry>
        </mxCell>
        <mxCell id="VP5haOM-f1Nte6HLq3qM-7" style="edgeStyle=orthogonalEdgeStyle;rounded=0;orthogonalLoop=1;jettySize=auto;html=1;entryX=0.5;entryY=0;entryDx=0;entryDy=0;exitX=0.5;exitY=1;exitDx=0;exitDy=0;" edge="1" parent="1" source="VP5haOM-f1Nte6HLq3qM-8" target="VP5haOM-f1Nte6HLq3qM-15">
          <mxGeometry relative="1" as="geometry" />
        </mxCell>
        <mxCell id="VP5haOM-f1Nte6HLq3qM-8" value="STEP 2" style="rounded=1;whiteSpace=wrap;html=1;arcSize=24;shadow=0;comic=0;labelBackgroundColor=none;fontFamily=Verdana;fontSize=12;align=center;" vertex="1" parent="1">
          <mxGeometry x="380" y="1061" width="120" height="60" as="geometry" />
        </mxCell>
        <mxCell id="VP5haOM-f1Nte6HLq3qM-9" style="edgeStyle=orthogonalEdgeStyle;rounded=0;orthogonalLoop=1;jettySize=auto;html=1;entryX=0.5;entryY=0;entryDx=0;entryDy=0;" edge="1" parent="1" source="VP5haOM-f1Nte6HLq3qM-10" target="VP5haOM-f1Nte6HLq3qM-14">
          <mxGeometry relative="1" as="geometry" />
        </mxCell>
        <mxCell id="VP5haOM-f1Nte6HLq3qM-10" value="STEP 3" style="rounded=1;whiteSpace=wrap;html=1;arcSize=24;shadow=0;comic=0;labelBackgroundColor=none;fontFamily=Verdana;fontSize=12;align=center;" vertex="1" parent="1">
          <mxGeometry x="635" y="1061" width="120" height="60" as="geometry" />
        </mxCell>
        <mxCell id="VP5haOM-f1Nte6HLq3qM-11" style="edgeStyle=orthogonalEdgeStyle;rounded=0;orthogonalLoop=1;jettySize=auto;html=1;entryX=0.5;entryY=0;entryDx=0;entryDy=0;" edge="1" parent="1" source="VP5haOM-f1Nte6HLq3qM-14" target="VP5haOM-f1Nte6HLq3qM-20">
          <mxGeometry relative="1" as="geometry" />
        </mxCell>
        <mxCell id="VP5haOM-f1Nte6HLq3qM-12" style="edgeStyle=orthogonalEdgeStyle;rounded=0;orthogonalLoop=1;jettySize=auto;html=1;entryX=1;entryY=0.5;entryDx=0;entryDy=0;" edge="1" parent="1" source="VP5haOM-f1Nte6HLq3qM-14" target="VP5haOM-f1Nte6HLq3qM-15">
          <mxGeometry relative="1" as="geometry" />
        </mxCell>
        <mxCell id="VP5haOM-f1Nte6HLq3qM-13" style="edgeStyle=orthogonalEdgeStyle;rounded=0;orthogonalLoop=1;jettySize=auto;html=1;entryX=0;entryY=0.5;entryDx=0;entryDy=0;" edge="1" parent="1" source="VP5haOM-f1Nte6HLq3qM-14" target="VP5haOM-f1Nte6HLq3qM-16">
          <mxGeometry relative="1" as="geometry" />
        </mxCell>
        <mxCell id="VP5haOM-f1Nte6HLq3qM-14" value="STEP 4" style="rounded=1;whiteSpace=wrap;html=1;arcSize=24;shadow=0;comic=0;labelBackgroundColor=none;fontFamily=Verdana;fontSize=12;align=center;" vertex="1" parent="1">
          <mxGeometry x="635" y="1201" width="120" height="60" as="geometry" />
        </mxCell>
        <mxCell id="VP5haOM-f1Nte6HLq3qM-15" value="COMPLETE" style="rounded=1;whiteSpace=wrap;html=1;arcSize=24;shadow=0;comic=0;labelBackgroundColor=none;fontFamily=Verdana;fontSize=12;align=center;" vertex="1" parent="1">
          <mxGeometry x="380" y="1201" width="120" height="60" as="geometry" />
        </mxCell>
        <mxCell id="VP5haOM-f1Nte6HLq3qM-16" value="STOPPED" style="rounded=1;whiteSpace=wrap;html=1;arcSize=24;shadow=0;comic=0;labelBackgroundColor=none;fontFamily=Verdana;fontSize=12;align=center;" vertex="1" parent="1">
          <mxGeometry x="920" y="1201" width="120" height="60" as="geometry" />
        </mxCell>
        <mxCell id="VP5haOM-f1Nte6HLq3qM-17" value="dissolveCO2() complete&lt;div&gt;&amp;amp;&lt;/div&gt;&lt;div&gt;0.9 bar &amp;lt; bpa1 &amp;lt; 1 bar&lt;/div&gt;" style="edgeLabel;html=1;align=center;verticalAlign=middle;resizable=0;points=[];" connectable="0" vertex="1" parent="1">
          <mxGeometry x="600.0033333333334" y="1191" as="geometry">
            <mxPoint x="-35" y="4" as="offset" />
          </mxGeometry>
        </mxCell>
        <mxCell id="VP5haOM-f1Nte6HLq3qM-18" value="dissolveCO2() complete&lt;div&gt;&amp;amp;&lt;/div&gt;&lt;div&gt;0.9 bar &amp;lt; bpa1 &amp;lt; 1 bar&lt;/div&gt;" style="edgeLabel;html=1;align=center;verticalAlign=middle;resizable=0;points=[];" connectable="0" vertex="1" parent="1">
          <mxGeometry x="390.00333333333344" y="1291" as="geometry">
            <mxPoint x="-35" y="4" as="offset" />
          </mxGeometry>
        </mxCell>
        <mxCell id="VP5haOM-f1Nte6HLq3qM-19" style="edgeStyle=orthogonalEdgeStyle;rounded=0;orthogonalLoop=1;jettySize=auto;html=1;entryX=1;entryY=0.25;entryDx=0;entryDy=0;exitX=0;exitY=0.25;exitDx=0;exitDy=0;" edge="1" parent="1" source="VP5haOM-f1Nte6HLq3qM-20">
          <mxGeometry relative="1" as="geometry">
            <mxPoint x="500" y="1356" as="targetPoint" />
          </mxGeometry>
        </mxCell>
        <mxCell id="VP5haOM-f1Nte6HLq3qM-20" value="STEP 5" style="rounded=1;whiteSpace=wrap;html=1;arcSize=24;shadow=0;comic=0;labelBackgroundColor=none;fontFamily=Verdana;fontSize=12;align=center;" vertex="1" parent="1">
          <mxGeometry x="635" y="1341" width="120" height="60" as="geometry" />
        </mxCell>
        <mxCell id="VP5haOM-f1Nte6HLq3qM-21" style="edgeStyle=orthogonalEdgeStyle;rounded=0;orthogonalLoop=1;jettySize=auto;html=1;entryX=0.5;entryY=1;entryDx=0;entryDy=0;exitX=0.5;exitY=0;exitDx=0;exitDy=0;" edge="1" parent="1" source="VP5haOM-f1Nte6HLq3qM-26" target="VP5haOM-f1Nte6HLq3qM-15">
          <mxGeometry relative="1" as="geometry">
            <mxPoint x="440" y="1321" as="sourcePoint" />
          </mxGeometry>
        </mxCell>
        <mxCell id="VP5haOM-f1Nte6HLq3qM-22" style="edgeStyle=orthogonalEdgeStyle;rounded=0;orthogonalLoop=1;jettySize=auto;html=1;entryX=0;entryY=0.75;entryDx=0;entryDy=0;exitX=1;exitY=0.75;exitDx=0;exitDy=0;" edge="1" parent="1" target="VP5haOM-f1Nte6HLq3qM-20">
          <mxGeometry relative="1" as="geometry">
            <mxPoint x="500" y="1386" as="sourcePoint" />
          </mxGeometry>
        </mxCell>
        <mxCell id="VP5haOM-f1Nte6HLq3qM-23" value="injectCO2(1 bar)&amp;nbsp;&lt;div&gt;complete&lt;/div&gt;" style="edgeLabel;html=1;align=center;verticalAlign=middle;resizable=0;points=[];" connectable="0" vertex="1" parent="1">
          <mxGeometry x="570" y="1331" as="geometry" />
        </mxCell>
        <mxCell id="VP5haOM-f1Nte6HLq3qM-24" value="dissolveCO2() complete&lt;div&gt;&amp;amp;&lt;/div&gt;&lt;div&gt;bpa1 &amp;lt; 0.9 bar&lt;/div&gt;" style="edgeLabel;html=1;align=center;verticalAlign=middle;resizable=0;points=[];" connectable="0" vertex="1" parent="1">
          <mxGeometry x="570" y="1421" as="geometry" />
        </mxCell>
        <mxCell id="VP5haOM-f1Nte6HLq3qM-25" style="edgeStyle=orthogonalEdgeStyle;rounded=0;orthogonalLoop=1;jettySize=auto;html=1;entryX=0.5;entryY=1;entryDx=0;entryDy=0;" edge="1" parent="1" source="VP5haOM-f1Nte6HLq3qM-26" target="VP5haOM-f1Nte6HLq3qM-16">
          <mxGeometry relative="1" as="geometry">
            <Array as="points">
              <mxPoint x="440" y="1491" />
              <mxPoint x="980" y="1491" />
            </Array>
          </mxGeometry>
        </mxCell>
        <mxCell id="VP5haOM-f1Nte6HLq3qM-26" value="STEP 6" style="rounded=1;whiteSpace=wrap;html=1;arcSize=24;shadow=0;comic=0;labelBackgroundColor=none;fontFamily=Verdana;fontSize=12;align=center;" vertex="1" parent="1">
          <mxGeometry x="380" y="1341" width="120" height="60" as="geometry" />
        </mxCell>
        <mxCell id="VP5haOM-f1Nte6HLq3qM-27" value="dissolveCO2() complete&lt;div&gt;&amp;amp;&lt;/div&gt;&lt;div&gt;0.9 bar &amp;lt; bpa1 &amp;lt; 1 bar&lt;/div&gt;" style="edgeLabel;html=1;align=center;verticalAlign=middle;resizable=0;points=[];" connectable="0" vertex="1" parent="1">
          <mxGeometry x="390.00333333333344" y="1151" as="geometry">
            <mxPoint x="-35" y="4" as="offset" />
          </mxGeometry>
        </mxCell>
        <mxCell id="VP5haOM-f1Nte6HLq3qM-28" value="dissolveCO2() complete&amp;nbsp;&lt;div&gt;&amp;amp;&lt;/div&gt;&lt;div&gt;bpa1 &amp;gt; 1 bar&lt;/div&gt;" style="edgeLabel;html=1;align=center;verticalAlign=middle;resizable=0;points=[];" connectable="0" vertex="1" parent="1">
          <mxGeometry x="840.0033333333334" y="1201" as="geometry" />
        </mxCell>
        <mxCell id="VP5haOM-f1Nte6HLq3qM-29" value="dissolveCO2() complete&amp;nbsp;&lt;div&gt;&amp;amp;&lt;/div&gt;&lt;div&gt;bpa1 &amp;gt; 1 bar&lt;/div&gt;" style="edgeLabel;html=1;align=center;verticalAlign=middle;resizable=0;points=[];" connectable="0" vertex="1" parent="1">
          <mxGeometry x="500.00333333333344" y="961" as="geometry" />
        </mxCell>
        <mxCell id="VP5haOM-f1Nte6HLq3qM-30" value="dissolveCO2() complete&amp;nbsp;&lt;div&gt;&amp;amp;&lt;/div&gt;&lt;div&gt;bpa1 &amp;gt; 1 bar&lt;/div&gt;" style="edgeLabel;html=1;align=center;verticalAlign=middle;resizable=0;points=[];" connectable="0" vertex="1" parent="1">
          <mxGeometry x="500.00333333333344" y="1521" as="geometry" />
        </mxCell>
        <mxCell id="VP5haOM-f1Nte6HLq3qM-31" value="injectCO2(2 bar)&amp;nbsp;&lt;div&gt;&lt;div&gt;complete&lt;/div&gt;&lt;/div&gt;" style="edgeLabel;html=1;align=center;verticalAlign=middle;resizable=0;points=[];" connectable="0" vertex="1" parent="1">
          <mxGeometry x="755" y="1151.0000000000002" as="geometry" />
        </mxCell>
        <mxCell id="VP5haOM-f1Nte6HLq3qM-32" value="dissolveCO2() complete&amp;nbsp;&lt;div&gt;&amp;amp;&lt;/div&gt;&lt;div&gt;bpa1 &amp;lt; 0.9 bar&lt;/div&gt;" style="edgeLabel;html=1;align=center;verticalAlign=middle;resizable=0;points=[];" connectable="0" vertex="1" parent="1">
          <mxGeometry x="770.0033333333334" y="1301" as="geometry" />
        </mxCell>
      </root>
    </mxGraphModel>
  </diagram>
</mxfile>
